HIERARCHY
ROOT ui
{
	 OFFSET 0 0 0
	 CHANNELS 3 XPosition YPosition Z Position
	 EndSite
	 {
	 OFFSET 0 -1 0
	 }
}
ROOT li
{
	 OFFSET 0 0 0
	 CHANNELS 3 XPosition YPosition Z Position
	 EndSite
	 {
	 OFFSET 0 -1 0
	 }
}
ROOT ul
{
	 OFFSET 0 0 0
	 CHANNELS 3 XPosition YPosition Z Position
	 EndSite
	 {
	 OFFSET 0 -1 0
	 }
}
ROOT ll
{
	 OFFSET 0 0 0
	 CHANNELS 3 XPosition YPosition Z Position
	 EndSite
	 {
	 OFFSET 0 -1 0
	 }
}
ROOT tt
{
	 OFFSET 0 0 0
	 CHANNELS 3 XPosition YPosition Z Position
	 EndSite
	 {
	 OFFSET 0 -1 0
	 }
}
ROOT tb
{
	 OFFSET 0 0 0
	 CHANNELS 3 XPosition YPosition Z Position
	 EndSite
	 {
	 OFFSET 0 -1 0
	 }
}
ROOT td
{
	 OFFSET 0 0 0
	 CHANNELS 3 XPosition YPosition Z Position
	 EndSite
	 {
	 OFFSET 0 -1 0
	 }
}
ROOT v
{
	 OFFSET 0 0 0
	 CHANNELS 3 XPosition YPosition Z Position
	 EndSite
	 {
	 OFFSET 0 -1 0
	 }
}
ROOT bn
{
	 OFFSET 0 0 0
	 CHANNELS 3 XPosition YPosition Z Position
	 EndSite
	 {
	 OFFSET 0 -1 0
	 }
}
MOTION
Frames: 19
Frame Time: 0.002
-1.5116100013256074E-4	0.003094572067260742	0		0.6607089233398438	-2.58804736328125	0		-0.8551160278320312	0.26040383911132814	0		-0.12594065856933595	-2.969606689453125	0		1.6480440673828125	-1.23683349609375	0		2.88882373046875	-0.34870355224609373	0		4.1928876953125	0.5626663208007813	0		6.029806640625	0.8043363037109375	0		-0.40452374267578123	5.87338720703125	0		
4.23225998878479E-4	0.002380686044692993	0		0.6106550903320312	-2.582078125	0		-0.9225066528320313	0.26540240478515625	0		-0.12197842407226563	-2.96637109375	0		1.6636639404296876	-1.245536865234375	0		2.885379150390625	-0.35403860473632814	0		4.17762548828125	0.5816219482421875	0		6.02670947265625	0.8199840087890625	0		-0.27135675048828123	5.89403955078125	0		
9.978489875793457E-4	0.001686516046524048	0		0.6214032592773437	-2.591823486328125	0		-0.9219605712890625	0.2646080322265625	0		-0.1041300048828125	-2.971279052734375	0		1.6443990478515624	-1.2438143310546874	0		2.880075439453125	-0.3473492431640625	0		4.18713671875	0.5812748413085937	0		6.030591796875	0.8042587890625	0		-0.40567214965820314	5.872900390625	0		
0.0076551508903503415	0.007945521831512451	0		0.6252901611328125	-2.5884658203125	0		-0.911424072265625	0.26272662353515625	0		-0.22195010375976562	-2.945568115234375	0		1.6520076904296874	-1.2523984375	0		2.896568603515625	-0.35791253662109374	0		4.18379443359375	0.5930775756835938	0		6.0390908203125	0.8575811767578125	0		-0.2694703369140625	5.89059423828125	0		
0.01226600742340088	0.01025629711151123	0		0.6701787109375	-2.5835615234375	0		-0.9168250122070313	0.2660665588378906	0		-0.18306219482421876	-2.943673828125	0		1.667806640625	-1.244060302734375	0		2.867622802734375	-0.3199359130859375	0		4.19139599609375	0.5997482299804687	0		6.0308359375	0.8386829223632812	0		-0.404685302734375	5.8704951171875	0		
0.005761468887329101	0.0027239439487457278	0		0.6159930419921875	-2.582484375	0		-0.9162713012695313	0.2653730163574219	0		-0.1822320556640625	-2.94430419921875	0		1.6664559326171875	-1.2475079345703124	0		2.8729384765625	-0.3453594970703125	0		4.187990234375	0.6055403442382813	0		6.0218701171875	0.8197611694335938	0		-0.43481988525390625	5.85219287109375	0		
0.0032996399402618407	-8.269760012626648E-4	0		0.6308087158203125	-2.57918359375	0		-0.909765380859375	0.2606482849121094	0		-0.22425881958007812	-2.92941259765625	0		1.663010009765625	-1.25791943359375	0		2.878708984375	-0.3307830810546875	0		4.187458984375	0.6002877807617187	0		6.0222666015625	0.8195579223632813	0		-0.4356851501464844	5.8525849609375	0		
0.003862878084182739	-0.0013849849700927734	0		0.5915358276367187	-2.580243896484375	0		-0.9782720947265625	0.2558151397705078	0		-0.20856875610351563	-2.93615625	0		1.68459912109375	-1.2636051025390624	0		2.85823876953125	-0.3359090881347656	0		4.17411962890625	0.6121685791015625	0		6.02907568359375	0.8191217041015625	0		-0.3012720642089844	5.87247021484375	0		
0.007444043159484864	0.0010493570566177369	0		0.6192171020507813	-2.5820478515625	0		-0.9686492919921875	0.26312521362304686	0		-0.23575041198730468	-2.92738330078125	0		1.6753890380859375	-1.248928466796875	0		2.86914453125	-0.30639315795898436	0		4.18563134765625	0.6117501220703125	0		6.02303857421875	0.8189806518554688	0		-0.40706390380859375	5.87212255859375	0		
0.015046029090881348	0.007463911056518555	0		0.5880441284179687	-2.5661650390625	0		-0.9630933227539062	0.26651678466796874	0		-0.2079560546875	-2.9162060546875	0		1.703822509765625	-1.2626715087890625	0		2.864513427734375	-0.3217077026367188	0		4.19019384765625	0.6173944091796875	0		6.023556640625	0.8514672241210938	0		-0.4068155822753906	5.87159716796875	0		
0.008457220077514649	6.0920000076293944E-5	0		0.6095255737304688	-2.57586181640625	0		-0.8936739501953125	0.2602230224609375	0		-0.2403121337890625	-2.912325439453125	0		1.6664285888671875	-1.2566646728515625	0		2.900102783203125	-0.3144793395996094	0		4.177740234375	0.6242113037109375	0		6.0194365234375	0.8113491821289063	0		-0.40654147338867186	5.871099609375	0		
-0.07211543273925781	-0.0014913990497589112	0		0.610039306640625	-2.576306884765625	0		-0.9672203979492188	0.26156781005859375	0		-0.20683633422851563	-2.917163330078125	0		1.7219034423828126	-1.257698486328125	0		2.8635244140625	-0.31744775390625	0		4.17109033203125	0.6169407958984375	0		6.0126171875	0.8110277099609375	0		-0.3022270202636719	5.8724599609375	0		
0.006259397029876709	-0.0038092849254608156	0		0.6104744873046875	-2.5767392578125	0		-0.9617894897460938	0.265052001953125	0		-0.2702904968261719	-2.9078935546875	0		1.684385498046875	-1.2516865234375	0		2.8619658203125	-0.3138193359375	0		4.17147021484375	0.6165695190429688	0		6.0128935546875	0.8104422607421875	0		-0.40694158935546876	5.8721884765625	0		
-0.06431156921386719	0.004558127880096435	0		0.5899315185546875	-2.567927001953125	0		-0.9574119873046875	0.2685725402832031	0		-0.1880500030517578	-2.919239990234375	0		1.6836519775390626	-1.2590887451171875	0		2.877190185546875	-0.324391357421875	0		4.153869140625	0.6223760986328125	0		6.0223701171875	0.8026140747070313	0		-0.4056746520996094	5.8697470703125	0		
0.016990318298339843	0.005237785816192627	0		0.6182109375	-2.56865478515625	0		-0.9571270751953125	0.268160400390625	0		-0.22858760070800782	-2.903195068359375	0		1.6820916748046875	-1.24548291015625	0		2.88374267578125	-0.3008772888183594	0		4.161232421875	0.6288783569335937	0		6.0154501953125	0.8038084716796875	0		-0.43944735717773437	5.86371533203125	0		
0.00521392822265625	0.0029692959785461424	0		0.606499267578125	-2.562929443359375	0		-0.960923828125	0.26381182861328123	0		-0.2103492431640625	-2.901797607421875	0		1.6872012939453125	-1.25695751953125	0		2.840830810546875	-0.314825439453125	0		4.153349609375	0.6165255126953125	0		6.01197998046875	0.7858073120117187	0		-0.43527999877929685	5.8512724609375	0		
0.007342935085296631	-0.005448956966400146	0		0.605652587890625	-2.56532470703125	0		-0.9607005615234375	0.2634317626953125	0		-0.24415464782714844	-2.899808837890625	0		1.6894437255859376	-1.25340478515625	0		2.868121337890625	-0.30857293701171873	0		4.13850146484375	0.6092280883789063	0		6.00850146484375	0.7694725952148438	0		-0.30073541259765624	5.87037841796875	0		
0.007547182083129883	-0.005842716217041016	0		0.60682177734375	-2.5637431640625	0		-0.960490234375	0.2630597534179687	0		-0.24401539611816406	-2.900197021484375	0		1.6696324462890626	-1.2526114501953125	0		2.8652626953125	-0.31399688720703123	0		4.13871923828125	0.6087415771484375	0		6.00864990234375	0.768555419921875	0		-0.43462689208984373	5.85049951171875	0		
0.002792372941970825	-0.0021811990737915037	0		0.5570469970703125	-2.555590576171875	0		-0.9443519897460938	0.25651089477539063	0		-0.2717892150878906	-2.891269775390625	0		1.6838321533203124	-1.250208251953125	0		2.855725341796875	-0.29035614013671873	0		4.12793603515625	0.608361328125	0		6.02152099609375	0.7430243530273437	0		-0.27180853271484373	5.8902880859375	0		
